<svg width="418" height="356" viewBox="0 0 418 356" fill="none" xmlns="http://www.w3.org/2000/svg">
<path d="M4.42653 184.224H10.2825V186H2.24253V169.272H4.42653V184.224ZM13.7299 170.712C13.3139 170.712 12.9619 170.568 12.6739 170.28C12.3859 169.992 12.2419 169.64 12.2419 169.224C12.2419 168.808 12.3859 168.456 12.6739 168.168C12.9619 167.88 13.3139 167.736 13.7299 167.736C14.1299 167.736 14.4659 167.88 14.7379 168.168C15.0259 168.456 15.1699 168.808 15.1699 169.224C15.1699 169.64 15.0259 169.992 14.7379 170.28C14.4659 170.568 14.1299 170.712 13.7299 170.712ZM14.7859 172.848V186H12.6019V172.848H14.7859ZM23.8602 174.648H21.1002V186H18.9162V174.648H17.2122V172.848H18.9162V171.912C18.9162 170.44 19.2922 169.368 20.0442 168.696C20.8122 168.008 22.0362 167.664 23.7162 167.664V169.488C22.7562 169.488 22.0762 169.68 21.6762 170.064C21.2922 170.432 21.1002 171.048 21.1002 171.912V172.848H23.8602V174.648ZM38.4066 178.92C38.4066 179.336 38.3826 179.776 38.3346 180.24H27.8226C27.9026 181.536 28.3426 182.552 29.1426 183.288C29.9586 184.008 30.9426 184.368 32.0946 184.368C33.0386 184.368 33.8226 184.152 34.4466 183.72C35.0866 183.272 35.5346 182.68 35.7906 181.944H38.1426C37.7906 183.208 37.0866 184.24 36.0306 185.04C34.9746 185.824 33.6626 186.216 32.0946 186.216C30.8466 186.216 29.7266 185.936 28.7346 185.376C27.7586 184.816 26.9906 184.024 26.4306 183C25.8706 181.96 25.5906 180.76 25.5906 179.4C25.5906 178.04 25.8626 176.848 26.4066 175.824C26.9506 174.8 27.7106 174.016 28.6866 173.472C29.6786 172.912 30.8146 172.632 32.0946 172.632C33.3426 172.632 34.4466 172.904 35.4066 173.448C36.3666 173.992 37.1026 174.744 37.6146 175.704C38.1426 176.648 38.4066 177.72 38.4066 178.92ZM36.1506 178.464C36.1506 177.632 35.9666 176.92 35.5986 176.328C35.2306 175.72 34.7266 175.264 34.0866 174.96C33.4626 174.64 32.7666 174.48 31.9986 174.48C30.8946 174.48 29.9506 174.832 29.1666 175.536C28.3986 176.24 27.9586 177.216 27.8466 178.464H36.1506ZM51.5854 169.272V171.048H47.0254V186H44.8414V171.048H40.2574V169.272H51.5854ZM56.4578 174.984C56.8418 174.232 57.3858 173.648 58.0898 173.232C58.8098 172.816 59.6818 172.608 60.7058 172.608V174.864H60.1298C57.6818 174.864 56.4578 176.192 56.4578 178.848V186H54.2738V172.848H56.4578V174.984ZM62.4109 179.376C62.4109 178.032 62.6829 176.856 63.2269 175.848C63.7709 174.824 64.5149 174.032 65.4589 173.472C66.4189 172.912 67.4829 172.632 68.6509 172.632C69.8029 172.632 70.8029 172.88 71.6509 173.376C72.4989 173.872 73.1309 174.496 73.5469 175.248V172.848H75.7549V186H73.5469V183.552C73.1149 184.32 72.4669 184.96 71.6029 185.472C70.7549 185.968 69.7629 186.216 68.6269 186.216C67.4589 186.216 66.4029 185.928 65.4589 185.352C64.5149 184.776 63.7709 183.968 63.2269 182.928C62.6829 181.888 62.4109 180.704 62.4109 179.376ZM73.5469 179.4C73.5469 178.408 73.3469 177.544 72.9469 176.808C72.5469 176.072 72.0029 175.512 71.3149 175.128C70.6429 174.728 69.8989 174.528 69.0829 174.528C68.2669 174.528 67.5229 174.72 66.8509 175.104C66.1789 175.488 65.6429 176.048 65.2429 176.784C64.8429 177.52 64.6429 178.384 64.6429 179.376C64.6429 180.384 64.8429 181.264 65.2429 182.016C65.6429 182.752 66.1789 183.32 66.8509 183.72C67.5229 184.104 68.2669 184.296 69.0829 184.296C69.8989 184.296 70.6429 184.104 71.3149 183.72C72.0029 183.32 72.5469 182.752 72.9469 182.016C73.3469 181.264 73.5469 180.392 73.5469 179.4ZM78.6297 179.4C78.6297 178.04 78.9017 176.856 79.4457 175.848C79.9897 174.824 80.7417 174.032 81.7017 173.472C82.6777 172.912 83.7897 172.632 85.0377 172.632C86.6537 172.632 87.9817 173.024 89.0217 173.808C90.0777 174.592 90.7737 175.68 91.1097 177.072H88.7577C88.5337 176.272 88.0937 175.64 87.4377 175.176C86.7977 174.712 85.9977 174.48 85.0377 174.48C83.7897 174.48 82.7817 174.912 82.0137 175.776C81.2457 176.624 80.8617 177.832 80.8617 179.4C80.8617 180.984 81.2457 182.208 82.0137 183.072C82.7817 183.936 83.7897 184.368 85.0377 184.368C85.9977 184.368 86.7977 184.144 87.4377 183.696C88.0777 183.248 88.5177 182.608 88.7577 181.776H91.1097C90.7577 183.12 90.0537 184.2 88.9977 185.016C87.9417 185.816 86.6217 186.216 85.0377 186.216C83.7897 186.216 82.6777 185.936 81.7017 185.376C80.7417 184.816 79.9897 184.024 79.4457 183C78.9017 181.976 78.6297 180.776 78.6297 179.4ZM101.368 186L96.2078 180.192V186H94.0238V168.24H96.2078V178.68L101.272 172.848H104.32L98.1278 179.4L104.344 186H101.368ZM113.47 186.144C113.054 186.144 112.702 186 112.414 185.712C112.126 185.424 111.982 185.072 111.982 184.656C111.982 184.24 112.126 183.888 112.414 183.6C112.702 183.312 113.054 183.168 113.47 183.168C113.87 183.168 114.206 183.312 114.478 183.6C114.766 183.888 114.91 184.24 114.91 184.656C114.91 185.072 114.766 185.424 114.478 185.712C114.206 186 113.87 186.144 113.47 186.144ZM113.47 175.872C113.054 175.872 112.702 175.728 112.414 175.44C112.126 175.152 111.982 174.8 111.982 174.384C111.982 173.968 112.126 173.616 112.414 173.328C112.702 173.04 113.054 172.896 113.47 172.896C113.87 172.896 114.206 173.04 114.478 173.328C114.766 173.616 114.91 173.968 114.91 174.384C114.91 174.8 114.766 175.152 114.478 175.44C114.206 175.728 113.87 175.872 113.47 175.872ZM134.17 182.28H126.874L125.53 186H123.226L129.274 169.368H131.794L137.818 186H135.514L134.17 182.28ZM133.546 180.504L130.522 172.056L127.498 180.504H133.546ZM149.036 175.296C149.484 174.512 150.14 173.872 151.004 173.376C151.868 172.88 152.852 172.632 153.956 172.632C155.14 172.632 156.204 172.912 157.148 173.472C158.092 174.032 158.836 174.824 159.38 175.848C159.924 176.856 160.196 178.032 160.196 179.376C160.196 180.704 159.924 181.888 159.38 182.928C158.836 183.968 158.084 184.776 157.124 185.352C156.18 185.928 155.124 186.216 153.956 186.216C152.82 186.216 151.82 185.968 150.956 185.472C150.108 184.976 149.468 184.344 149.036 183.576V186H146.852V168.24H149.036V175.296ZM157.964 179.376C157.964 178.384 157.764 177.52 157.364 176.784C156.964 176.048 156.42 175.488 155.732 175.104C155.06 174.72 154.316 174.528 153.5 174.528C152.7 174.528 151.956 174.728 151.268 175.128C150.596 175.512 150.052 176.08 149.636 176.832C149.236 177.568 149.036 178.424 149.036 179.4C149.036 180.392 149.236 181.264 149.636 182.016C150.052 182.752 150.596 183.32 151.268 183.72C151.956 184.104 152.7 184.296 153.5 184.296C154.316 184.296 155.06 184.104 155.732 183.72C156.42 183.32 156.964 182.752 157.364 182.016C157.764 181.264 157.964 180.384 157.964 179.376ZM162.255 179.376C162.255 178.032 162.527 176.856 163.071 175.848C163.615 174.824 164.359 174.032 165.303 173.472C166.263 172.912 167.327 172.632 168.495 172.632C169.647 172.632 170.647 172.88 171.495 173.376C172.343 173.872 172.975 174.496 173.391 175.248V172.848H175.599V186H173.391V183.552C172.959 184.32 172.311 184.96 171.447 185.472C170.599 185.968 169.607 186.216 168.471 186.216C167.303 186.216 166.247 185.928 165.303 185.352C164.359 184.776 163.615 183.968 163.071 182.928C162.527 181.888 162.255 180.704 162.255 179.376ZM173.391 179.4C173.391 178.408 173.191 177.544 172.791 176.808C172.391 176.072 171.847 175.512 171.159 175.128C170.487 174.728 169.743 174.528 168.927 174.528C168.111 174.528 167.367 174.72 166.695 175.104C166.023 175.488 165.487 176.048 165.087 176.784C164.687 177.52 164.487 178.384 164.487 179.376C164.487 180.384 164.687 181.264 165.087 182.016C165.487 182.752 166.023 183.32 166.695 183.72C167.367 184.104 168.111 184.296 168.927 184.296C169.743 184.296 170.487 184.104 171.159 183.72C171.847 183.32 172.391 182.752 172.791 182.016C173.191 181.264 173.391 180.392 173.391 179.4ZM183.945 186.216C182.937 186.216 182.033 186.048 181.233 185.712C180.433 185.36 179.801 184.88 179.337 184.272C178.873 183.648 178.617 182.936 178.569 182.136H180.825C180.889 182.792 181.193 183.328 181.737 183.744C182.297 184.16 183.025 184.368 183.921 184.368C184.753 184.368 185.409 184.184 185.889 183.816C186.369 183.448 186.609 182.984 186.609 182.424C186.609 181.848 186.353 181.424 185.841 181.152C185.329 180.864 184.537 180.584 183.465 180.312C182.489 180.056 181.689 179.8 181.065 179.544C180.457 179.272 179.929 178.88 179.481 178.368C179.049 177.84 178.833 177.152 178.833 176.304C178.833 175.632 179.033 175.016 179.433 174.456C179.833 173.896 180.401 173.456 181.137 173.136C181.873 172.8 182.713 172.632 183.657 172.632C185.113 172.632 186.289 173 187.185 173.736C188.081 174.472 188.561 175.48 188.625 176.76H186.441C186.393 176.072 186.113 175.52 185.601 175.104C185.105 174.688 184.433 174.48 183.585 174.48C182.801 174.48 182.177 174.648 181.713 174.984C181.249 175.32 181.017 175.76 181.017 176.304C181.017 176.736 181.153 177.096 181.425 177.384C181.713 177.656 182.065 177.88 182.481 178.056C182.913 178.216 183.505 178.4 184.257 178.608C185.201 178.864 185.969 179.12 186.561 179.376C187.153 179.616 187.657 179.984 188.073 180.48C188.505 180.976 188.729 181.624 188.745 182.424C188.745 183.144 188.545 183.792 188.145 184.368C187.745 184.944 187.177 185.4 186.441 185.736C185.721 186.056 184.889 186.216 183.945 186.216ZM192.956 170.712C192.54 170.712 192.188 170.568 191.9 170.28C191.612 169.992 191.468 169.64 191.468 169.224C191.468 168.808 191.612 168.456 191.9 168.168C192.188 167.88 192.54 167.736 192.956 167.736C193.356 167.736 193.692 167.88 193.964 168.168C194.252 168.456 194.396 168.808 194.396 169.224C194.396 169.64 194.252 169.992 193.964 170.28C193.692 170.568 193.356 170.712 192.956 170.712ZM194.012 172.848V186H191.828V172.848H194.012ZM196.919 179.4C196.919 178.04 197.191 176.856 197.735 175.848C198.279 174.824 199.031 174.032 199.991 173.472C200.967 172.912 202.079 172.632 203.327 172.632C204.943 172.632 206.271 173.024 207.311 173.808C208.367 174.592 209.063 175.68 209.399 177.072H207.047C206.823 176.272 206.383 175.64 205.727 175.176C205.087 174.712 204.287 174.48 203.327 174.48C202.079 174.48 201.071 174.912 200.303 175.776C199.535 176.624 199.151 177.832 199.151 179.4C199.151 180.984 199.535 182.208 200.303 183.072C201.071 183.936 202.079 184.368 203.327 184.368C204.287 184.368 205.087 184.144 205.727 183.696C206.367 183.248 206.807 182.608 207.047 181.776H209.399C209.047 183.12 208.343 184.2 207.287 185.016C206.231 185.816 204.911 186.216 203.327 186.216C202.079 186.216 200.967 185.936 199.991 185.376C199.031 184.816 198.279 184.024 197.735 183C197.191 181.976 196.919 180.776 196.919 179.4ZM239.735 169.272L234.887 186H232.439L228.551 172.536L224.519 186L222.095 186.024L217.415 169.272H219.743L223.391 183.456L227.423 169.272H229.871L233.711 183.408L237.383 169.272H239.735ZM254.125 178.92C254.125 179.336 254.101 179.776 254.053 180.24H243.541C243.621 181.536 244.061 182.552 244.861 183.288C245.677 184.008 246.661 184.368 247.813 184.368C248.757 184.368 249.541 184.152 250.165 183.72C250.805 183.272 251.253 182.68 251.509 181.944H253.861C253.509 183.208 252.805 184.24 251.749 185.04C250.693 185.824 249.381 186.216 247.813 186.216C246.565 186.216 245.445 185.936 244.453 185.376C243.477 184.816 242.709 184.024 242.149 183C241.589 181.96 241.309 180.76 241.309 179.4C241.309 178.04 241.581 176.848 242.125 175.824C242.669 174.8 243.429 174.016 244.405 173.472C245.397 172.912 246.533 172.632 247.813 172.632C249.061 172.632 250.165 172.904 251.125 173.448C252.085 173.992 252.821 174.744 253.333 175.704C253.861 176.648 254.125 177.72 254.125 178.92ZM251.869 178.464C251.869 177.632 251.685 176.92 251.317 176.328C250.949 175.72 250.445 175.264 249.805 174.96C249.181 174.64 248.485 174.48 247.717 174.48C246.613 174.48 245.669 174.832 244.885 175.536C244.117 176.24 243.677 177.216 243.565 178.464H251.869ZM259.192 168.24V186H257.008V168.24H259.192ZM265.098 168.24V186H262.914V168.24H265.098ZM275.229 172.608C276.829 172.608 278.125 173.096 279.117 174.072C280.109 175.032 280.605 176.424 280.605 178.248V186H278.445V178.56C278.445 177.248 278.117 176.248 277.461 175.56C276.805 174.856 275.909 174.504 274.773 174.504C273.621 174.504 272.701 174.864 272.013 175.584C271.341 176.304 271.005 177.352 271.005 178.728V186H268.821V172.848H271.005V174.72C271.437 174.048 272.021 173.528 272.757 173.16C273.509 172.792 274.333 172.608 275.229 172.608ZM296.172 178.92C296.172 179.336 296.148 179.776 296.1 180.24H285.588C285.668 181.536 286.108 182.552 286.908 183.288C287.724 184.008 288.708 184.368 289.86 184.368C290.804 184.368 291.588 184.152 292.212 183.72C292.852 183.272 293.3 182.68 293.556 181.944H295.908C295.556 183.208 294.852 184.24 293.796 185.04C292.74 185.824 291.428 186.216 289.86 186.216C288.612 186.216 287.492 185.936 286.5 185.376C285.524 184.816 284.756 184.024 284.196 183C283.636 181.96 283.356 180.76 283.356 179.4C283.356 178.04 283.628 176.848 284.172 175.824C284.716 174.8 285.476 174.016 286.452 173.472C287.444 172.912 288.58 172.632 289.86 172.632C291.108 172.632 292.212 172.904 293.172 173.448C294.132 173.992 294.868 174.744 295.38 175.704C295.908 176.648 296.172 177.72 296.172 178.92ZM293.916 178.464C293.916 177.632 293.732 176.92 293.364 176.328C292.996 175.72 292.492 175.264 291.852 174.96C291.228 174.64 290.532 174.48 289.764 174.48C288.66 174.48 287.716 174.832 286.932 175.536C286.164 176.24 285.724 177.216 285.612 178.464H293.916ZM303.711 186.216C302.703 186.216 301.799 186.048 300.999 185.712C300.199 185.36 299.567 184.88 299.103 184.272C298.639 183.648 298.383 182.936 298.335 182.136H300.591C300.655 182.792 300.959 183.328 301.503 183.744C302.063 184.16 302.791 184.368 303.687 184.368C304.519 184.368 305.175 184.184 305.655 183.816C306.135 183.448 306.375 182.984 306.375 182.424C306.375 181.848 306.119 181.424 305.607 181.152C305.095 180.864 304.303 180.584 303.231 180.312C302.255 180.056 301.455 179.8 300.831 179.544C300.223 179.272 299.695 178.88 299.247 178.368C298.815 177.84 298.599 177.152 298.599 176.304C298.599 175.632 298.799 175.016 299.199 174.456C299.599 173.896 300.167 173.456 300.903 173.136C301.639 172.8 302.479 172.632 303.423 172.632C304.879 172.632 306.055 173 306.951 173.736C307.847 174.472 308.327 175.48 308.391 176.76H306.207C306.159 176.072 305.879 175.52 305.367 175.104C304.871 174.688 304.199 174.48 303.351 174.48C302.567 174.48 301.943 174.648 301.479 174.984C301.015 175.32 300.783 175.76 300.783 176.304C300.783 176.736 300.919 177.096 301.191 177.384C301.479 177.656 301.831 177.88 302.247 178.056C302.679 178.216 303.271 178.4 304.023 178.608C304.967 178.864 305.735 179.12 306.327 179.376C306.919 179.616 307.423 179.984 307.839 180.48C308.271 180.976 308.495 181.624 308.511 182.424C308.511 183.144 308.311 183.792 307.911 184.368C307.511 184.944 306.943 185.4 306.207 185.736C305.487 186.056 304.655 186.216 303.711 186.216ZM316.25 186.216C315.242 186.216 314.338 186.048 313.538 185.712C312.738 185.36 312.106 184.88 311.642 184.272C311.178 183.648 310.922 182.936 310.874 182.136H313.13C313.194 182.792 313.498 183.328 314.042 183.744C314.602 184.16 315.33 184.368 316.226 184.368C317.058 184.368 317.714 184.184 318.194 183.816C318.674 183.448 318.914 182.984 318.914 182.424C318.914 181.848 318.658 181.424 318.146 181.152C317.634 180.864 316.842 180.584 315.77 180.312C314.794 180.056 313.994 179.8 313.37 179.544C312.762 179.272 312.234 178.88 311.786 178.368C311.354 177.84 311.138 177.152 311.138 176.304C311.138 175.632 311.338 175.016 311.738 174.456C312.138 173.896 312.706 173.456 313.442 173.136C314.178 172.8 315.018 172.632 315.962 172.632C317.418 172.632 318.594 173 319.49 173.736C320.386 174.472 320.866 175.48 320.93 176.76H318.746C318.698 176.072 318.418 175.52 317.906 175.104C317.41 174.688 316.738 174.48 315.89 174.48C315.106 174.48 314.482 174.648 314.018 174.984C313.554 175.32 313.322 175.76 313.322 176.304C313.322 176.736 313.458 177.096 313.73 177.384C314.018 177.656 314.37 177.88 314.786 178.056C315.218 178.216 315.81 178.4 316.562 178.608C317.506 178.864 318.274 179.12 318.866 179.376C319.458 179.616 319.962 179.984 320.378 180.48C320.81 180.976 321.034 181.624 321.05 182.424C321.05 183.144 320.85 183.792 320.45 184.368C320.05 184.944 319.482 185.4 318.746 185.736C318.026 186.056 317.194 186.216 316.25 186.216ZM340.828 169.272V171.048H336.268V186H334.084V171.048H329.5V169.272H340.828ZM345.7 174.984C346.084 174.232 346.628 173.648 347.332 173.232C348.052 172.816 348.924 172.608 349.948 172.608V174.864H349.372C346.924 174.864 345.7 176.192 345.7 178.848V186H343.516V172.848H345.7V174.984ZM351.653 179.376C351.653 178.032 351.925 176.856 352.469 175.848C353.013 174.824 353.757 174.032 354.701 173.472C355.661 172.912 356.725 172.632 357.893 172.632C359.045 172.632 360.045 172.88 360.893 173.376C361.741 173.872 362.373 174.496 362.789 175.248V172.848H364.997V186H362.789V183.552C362.357 184.32 361.709 184.96 360.845 185.472C359.997 185.968 359.005 186.216 357.869 186.216C356.701 186.216 355.645 185.928 354.701 185.352C353.757 184.776 353.013 183.968 352.469 182.928C351.925 181.888 351.653 180.704 351.653 179.376ZM362.789 179.4C362.789 178.408 362.589 177.544 362.189 176.808C361.789 176.072 361.245 175.512 360.557 175.128C359.885 174.728 359.141 174.528 358.325 174.528C357.509 174.528 356.765 174.72 356.093 175.104C355.421 175.488 354.885 176.048 354.485 176.784C354.085 177.52 353.885 178.384 353.885 179.376C353.885 180.384 354.085 181.264 354.485 182.016C354.885 182.752 355.421 183.32 356.093 183.72C356.765 184.104 357.509 184.296 358.325 184.296C359.141 184.296 359.885 184.104 360.557 183.72C361.245 183.32 361.789 182.752 362.189 182.016C362.589 181.264 362.789 180.392 362.789 179.4ZM367.872 179.4C367.872 178.04 368.144 176.856 368.688 175.848C369.232 174.824 369.984 174.032 370.944 173.472C371.92 172.912 373.032 172.632 374.28 172.632C375.896 172.632 377.224 173.024 378.264 173.808C379.32 174.592 380.016 175.68 380.352 177.072H378C377.776 176.272 377.336 175.64 376.68 175.176C376.04 174.712 375.24 174.48 374.28 174.48C373.032 174.48 372.024 174.912 371.256 175.776C370.488 176.624 370.104 177.832 370.104 179.4C370.104 180.984 370.488 182.208 371.256 183.072C372.024 183.936 373.032 184.368 374.28 184.368C375.24 184.368 376.04 184.144 376.68 183.696C377.32 183.248 377.76 182.608 378 181.776H380.352C380 183.12 379.296 184.2 378.24 185.016C377.184 185.816 375.864 186.216 374.28 186.216C373.032 186.216 371.92 185.936 370.944 185.376C369.984 184.816 369.232 184.024 368.688 183C368.144 181.976 367.872 180.776 367.872 179.4ZM390.61 186L385.45 180.192V186H383.266V168.24H385.45V178.68L390.514 172.848H393.562L387.37 179.4L393.586 186H390.61ZM407.618 178.92C407.618 179.336 407.594 179.776 407.546 180.24H397.034C397.114 181.536 397.554 182.552 398.354 183.288C399.17 184.008 400.154 184.368 401.306 184.368C402.25 184.368 403.034 184.152 403.658 183.72C404.298 183.272 404.746 182.68 405.002 181.944H407.354C407.002 183.208 406.298 184.24 405.242 185.04C404.186 185.824 402.874 186.216 401.306 186.216C400.058 186.216 398.938 185.936 397.946 185.376C396.97 184.816 396.202 184.024 395.642 183C395.082 181.96 394.802 180.76 394.802 179.4C394.802 178.04 395.074 176.848 395.618 175.824C396.162 174.8 396.922 174.016 397.898 173.472C398.89 172.912 400.026 172.632 401.306 172.632C402.554 172.632 403.658 172.904 404.618 173.448C405.578 173.992 406.314 174.744 406.826 175.704C407.354 176.648 407.618 177.72 407.618 178.92ZM405.362 178.464C405.362 177.632 405.178 176.92 404.81 176.328C404.442 175.72 403.938 175.264 403.298 174.96C402.674 174.64 401.978 174.48 401.21 174.48C400.106 174.48 399.162 174.832 398.378 175.536C397.61 176.24 397.17 177.216 397.058 178.464H405.362ZM412.684 174.984C413.068 174.232 413.612 173.648 414.316 173.232C415.036 172.816 415.908 172.608 416.932 172.608V174.864H416.356C413.908 174.864 412.684 176.192 412.684 178.848V186H410.5V172.848H412.684V174.984Z" fill="#0D0B33"/>
<rect x="186" width="47" height="144" fill="#52489F"/>
<rect x="186" y="212" width="47" height="144" fill="#52489F"/>
<rect x="293" width="47" height="144" fill="#4C2F6F"/>
<rect x="293" y="212" width="47" height="144" fill="#4C2F6F"/>
<rect x="79" width="47" height="144" fill="#C266A7"/>
<rect x="79" y="212" width="47" height="144" fill="#C266A7"/>
</svg>
