<svg width="128" height="42" viewBox="0 0 128 42" fill="none" xmlns="http://www.w3.org/2000/svg">
<path d="M76 0H89V42H76V0Z" fill="#C266A7"/>
<path d="M2.97706 34.316H6.88106V35.5H1.52106V24.348H2.97706V34.316ZM9.17931 25.308C8.90198 25.308 8.66731 25.212 8.47531 25.02C8.28331 24.828 8.18731 24.5933 8.18731 24.316C8.18731 24.0387 8.28331 23.804 8.47531 23.612C8.66731 23.42 8.90198 23.324 9.17931 23.324C9.44598 23.324 9.66998 23.42 9.85131 23.612C10.0433 23.804 10.1393 24.0387 10.1393 24.316C10.1393 24.5933 10.0433 24.828 9.85131 25.02C9.66998 25.212 9.44598 25.308 9.17931 25.308ZM9.88331 26.732V35.5H8.42731V26.732H9.88331ZM15.9328 27.932H14.0928V35.5H12.6368V27.932H11.5008V26.732H12.6368V26.108C12.6368 25.1267 12.8875 24.412 13.3888 23.964C13.9008 23.5053 14.7168 23.276 15.8368 23.276V24.492C15.1968 24.492 14.7435 24.62 14.4768 24.876C14.2208 25.1213 14.0928 25.532 14.0928 26.108V26.732H15.9328V27.932ZM25.6304 30.78C25.6304 31.0573 25.6144 31.3507 25.5824 31.66H18.5744C18.6278 32.524 18.9211 33.2013 19.4544 33.692C19.9984 34.172 20.6544 34.412 21.4224 34.412C22.0518 34.412 22.5744 34.268 22.9904 33.98C23.4171 33.6813 23.7158 33.2867 23.8864 32.796H25.4544C25.2198 33.6387 24.7504 34.3267 24.0464 34.86C23.3424 35.3827 22.4678 35.644 21.4224 35.644C20.5904 35.644 19.8438 35.4573 19.1824 35.084C18.5318 34.7107 18.0198 34.1827 17.6464 33.5C17.2731 32.8067 17.0864 32.0067 17.0864 31.1C17.0864 30.1933 17.2678 29.3987 17.6304 28.716C17.9931 28.0333 18.4998 27.5107 19.1504 27.148C19.8118 26.7747 20.5691 26.588 21.4224 26.588C22.2544 26.588 22.9904 26.7693 23.6304 27.132C24.2704 27.4947 24.7611 27.996 25.1024 28.636C25.4544 29.2653 25.6304 29.98 25.6304 30.78ZM24.1264 30.476C24.1264 29.9213 24.0038 29.4467 23.7584 29.052C23.5131 28.6467 23.1771 28.3427 22.7504 28.14C22.3344 27.9267 21.8704 27.82 21.3584 27.82C20.6224 27.82 19.9931 28.0547 19.4704 28.524C18.9584 28.9933 18.6651 29.644 18.5904 30.476H24.1264ZM34.4163 24.348V25.532H31.3763V35.5H29.9203V25.532H26.8643V24.348H34.4163ZM37.6646 28.156C37.9206 27.6547 38.2832 27.2653 38.7526 26.988C39.2326 26.7107 39.8139 26.572 40.4966 26.572V28.076H40.1126C38.4806 28.076 37.6646 28.9613 37.6646 30.732V35.5H36.2086V26.732H37.6646V28.156ZM41.6333 31.084C41.6333 30.188 41.8146 29.404 42.1773 28.732C42.54 28.0493 43.036 27.5213 43.6653 27.148C44.3053 26.7747 45.0146 26.588 45.7933 26.588C46.5613 26.588 47.228 26.7533 47.7933 27.084C48.3586 27.4147 48.78 27.8307 49.0573 28.332V26.732H50.5293V35.5H49.0573V33.868C48.7693 34.38 48.3373 34.8067 47.7613 35.148C47.196 35.4787 46.5346 35.644 45.7773 35.644C44.9986 35.644 44.2946 35.452 43.6653 35.068C43.036 34.684 42.54 34.1453 42.1773 33.452C41.8146 32.7587 41.6333 31.9693 41.6333 31.084ZM49.0573 31.1C49.0573 30.4387 48.924 29.8627 48.6573 29.372C48.3906 28.8813 48.028 28.508 47.5693 28.252C47.1213 27.9853 46.6253 27.852 46.0813 27.852C45.5373 27.852 45.0413 27.98 44.5933 28.236C44.1453 28.492 43.788 28.8653 43.5213 29.356C43.2546 29.8467 43.1213 30.4227 43.1213 31.084C43.1213 31.756 43.2546 32.3427 43.5213 32.844C43.788 33.3347 44.1453 33.7133 44.5933 33.98C45.0413 34.236 45.5373 34.364 46.0813 34.364C46.6253 34.364 47.1213 34.236 47.5693 33.98C48.028 33.7133 48.3906 33.3347 48.6573 32.844C48.924 32.3427 49.0573 31.7613 49.0573 31.1ZM52.4458 31.1C52.4458 30.1933 52.6271 29.404 52.9898 28.732C53.3525 28.0493 53.8538 27.5213 54.4938 27.148C55.1445 26.7747 55.8858 26.588 56.7178 26.588C57.7951 26.588 58.6805 26.8493 59.3738 27.372C60.0778 27.8947 60.5418 28.62 60.7658 29.548H59.1978C59.0485 29.0147 58.7551 28.5933 58.3178 28.284C57.8911 27.9747 57.3578 27.82 56.7178 27.82C55.8858 27.82 55.2138 28.108 54.7018 28.684C54.1898 29.2493 53.9338 30.0547 53.9338 31.1C53.9338 32.156 54.1898 32.972 54.7018 33.548C55.2138 34.124 55.8858 34.412 56.7178 34.412C57.3578 34.412 57.8911 34.2627 58.3178 33.964C58.7445 33.6653 59.0378 33.2387 59.1978 32.684H60.7658C60.5311 33.58 60.0618 34.3 59.3578 34.844C58.6538 35.3773 57.7738 35.644 56.7178 35.644C55.8858 35.644 55.1445 35.4573 54.4938 35.084C53.8538 34.7107 53.3525 34.1827 52.9898 33.5C52.6271 32.8173 52.4458 32.0173 52.4458 31.1ZM67.6046 35.5L64.1646 31.628V35.5H62.7086V23.66H64.1646V30.62L67.5406 26.732H69.5726L65.4446 31.1L69.5886 35.5H67.6046Z" fill="#0D0B33"/>
<path d="M115 0H128V42H115V0Z" fill="#4C2F6F"/>
<path d="M96 42H109V0H96V42Z" fill="#52489F"/>
</svg>
